<svg width="19" height="18" viewBox="0 0 19 18" fill="none" xmlns="http://www.w3.org/2000/svg">
<path d="M9.94165 1.125C5.59282 1.125 2.06665 4.65117 2.06665 9C2.06665 13.3488 5.59282 16.875 9.94165 16.875C14.2905 16.875 17.8167 13.3488 17.8167 9C17.8167 4.65117 14.2905 1.125 9.94165 1.125ZM13.3167 9.42188C13.3167 9.49922 13.2534 9.5625 13.176 9.5625H10.5042V12.2344C10.5042 12.3117 10.4409 12.375 10.3635 12.375H9.51978C9.44243 12.375 9.37915 12.3117 9.37915 12.2344V9.5625H6.70728C6.62993 9.5625 6.56665 9.49922 6.56665 9.42188V8.57812C6.56665 8.50078 6.62993 8.4375 6.70728 8.4375H9.37915V5.76562C9.37915 5.68828 9.44243 5.625 9.51978 5.625H10.3635C10.4409 5.625 10.5042 5.68828 10.5042 5.76562V8.4375H13.176C13.2534 8.4375 13.3167 8.50078 13.3167 8.57812V9.42188Z" fill="#3E82F1"/>
</svg>
