<svg width="15" height="14" viewBox="0 0 15 14" fill="none" xmlns="http://www.w3.org/2000/svg">
<path d="M12.6818 3.5H10.9318V2.40625C10.9318 1.92363 10.5394 1.53125 10.0568 1.53125H5.68176C5.19915 1.53125 4.80676 1.92363 4.80676 2.40625V3.5H3.05676C2.81477 3.5 2.61926 3.69551 2.61926 3.9375V4.375C2.61926 4.43516 2.66848 4.48438 2.72864 4.48438H3.55442L3.89211 11.6348C3.91399 12.101 4.29954 12.4688 4.76575 12.4688H10.9728C11.4404 12.4688 11.8245 12.1023 11.8464 11.6348L12.1841 4.48438H13.0099C13.07 4.48438 13.1193 4.43516 13.1193 4.375V3.9375C13.1193 3.69551 12.9238 3.5 12.6818 3.5ZM9.94739 3.5H5.79114V2.51562H9.94739V3.5Z" fill="#F9E8E8"/>
</svg>
