<svg width="16" height="16" viewBox="0 0 16 16" fill="none" xmlns="http://www.w3.org/2000/svg">
<path d="M12.6817 11.3177C12.3694 11.0186 12.0655 10.7109 11.7703 10.395C11.5223 10.143 11.373 9.95967 11.373 9.95967L9.50634 9.06834C10.2537 8.22077 10.6661 7.12967 10.6663 5.99967C10.6663 3.42701 8.57301 1.33301 5.99967 1.33301C3.42634 1.33301 1.33301 3.42701 1.33301 5.99967C1.33301 8.57234 3.42634 10.6663 5.99967 10.6663C7.17501 10.6663 8.24634 10.2263 9.06834 9.50701L9.95967 11.3737C9.95967 11.3737 10.143 11.523 10.395 11.771C10.653 12.013 10.9923 12.3403 11.3177 12.6823L12.223 13.6103L12.6257 14.041L14.0397 12.627L13.609 12.2243C13.3563 11.9763 13.019 11.647 12.6817 11.3177ZM5.99967 9.33301C4.16167 9.33301 2.66634 7.83767 2.66634 5.99967C2.66634 4.16167 4.16167 2.66634 5.99967 2.66634C7.83767 2.66634 9.33301 4.16167 9.33301 5.99967C9.33301 7.83767 7.83767 9.33301 5.99967 9.33301Z" fill="#2C4474" fill-opacity="0.54"/>
</svg>
