<svg width="14" height="14" viewBox="0 0 14 14" fill="none" xmlns="http://www.w3.org/2000/svg">
<path d="M7 8.75C7.9665 8.75 8.75 7.9665 8.75 7C8.75 6.0335 7.9665 5.25 7 5.25C6.0335 5.25 5.25 6.0335 5.25 7C5.25 7.9665 6.0335 8.75 7 8.75Z" fill="white"/>
<path d="M13.5363 6.85125C13.0217 5.52022 12.1284 4.36914 10.9668 3.54029C9.80514 2.71143 8.42608 2.24113 7.00006 2.1875C5.57403 2.24113 4.19498 2.71143 3.03333 3.54029C1.87169 4.36914 0.978378 5.52022 0.463808 6.85125C0.429056 6.94737 0.429056 7.05263 0.463808 7.14875C0.978378 8.47978 1.87169 9.63086 3.03333 10.4597C4.19498 11.2886 5.57403 11.7589 7.00006 11.8125C8.42608 11.7589 9.80514 11.2886 10.9668 10.4597C12.1284 9.63086 13.0217 8.47978 13.5363 7.14875C13.5711 7.05263 13.5711 6.94737 13.5363 6.85125ZM7.00006 9.84375C6.43762 9.84375 5.88781 9.67697 5.42016 9.36449C4.9525 9.05202 4.58801 8.60788 4.37278 8.08826C4.15754 7.56863 4.10122 6.99685 4.21095 6.44521C4.32068 5.89358 4.59152 5.38687 4.98922 4.98917C5.38693 4.59146 5.89364 4.32062 6.44527 4.21089C6.9969 4.10117 7.56869 4.15748 8.08831 4.37272C8.60794 4.58795 9.05207 4.95245 9.36455 5.4201C9.67702 5.88775 9.84381 6.43756 9.84381 7C9.84265 7.75385 9.54267 8.4765 9.00961 9.00956C8.47656 9.54261 7.75391 9.84259 7.00006 9.84375Z" fill="white"/>
</svg>
