<svg width="16" height="16" viewBox="0 0 16 16" fill="none" xmlns="http://www.w3.org/2000/svg">
<g clip-path="url(#clip0_1_643)">
<path d="M15.9931 5.38055L15.3221 9.22983C15.2394 9.65504 14.9006 9.91359 14.5099 9.91844H4.72776L4.53355 11.0132H13.8566C14.3475 11.0505 14.6805 11.3983 14.6865 11.8431C14.6508 12.333 14.303 12.6669 13.8566 12.6729H3.54474C2.98704 12.6228 2.6545 12.1782 2.71484 11.6841L3.15627 9.28276L2.4853 2.5377L0.578324 1.93739C0.112311 1.75236 -0.0778894 1.33079 0.0309506 0.895616C0.211924 0.442083 0.645564 0.23487 1.07272 0.348243L3.50942 1.12516C3.83768 1.24822 4.02652 1.51692 4.07444 1.83146L4.2157 3.1734L15.2691 4.4094C15.777 4.51942 16.0527 4.9217 15.9931 5.38055ZM6.07139 14.4155C6.07139 15.1152 5.50419 15.6824 4.80448 15.6824C4.10479 15.6824 3.53759 15.1152 3.53759 14.4155C3.53759 13.7158 4.1048 13.1486 4.80448 13.1486C5.50418 13.1486 6.07139 13.7158 6.07139 14.4155ZM13.6348 14.4155C13.6348 15.1152 13.0675 15.6824 12.3678 15.6824C11.6681 15.6824 11.1009 15.1152 11.1009 14.4155C11.1009 13.7158 11.6681 13.1486 12.3678 13.1486C13.0675 13.1486 13.6348 13.7158 13.6348 14.4155Z" fill="#2C4474"/>
</g>
<defs>
<clipPath id="clip0_1_643">
<rect width="16" height="16" fill="white" transform="translate(0.000976562)"/>
</clipPath>
</defs>
</svg>
