<svg width="26" height="26" viewBox="0 0 26 26" fill="none" xmlns="http://www.w3.org/2000/svg">
<g clip-path="url(#clip0_1_542)">
<rect x="0.000976562" width="26" height="26" rx="4" fill="white"/>
<path fill-rule="evenodd" clip-rule="evenodd" d="M5.20098 2.6C5.20098 1.91044 5.47491 1.24912 5.9625 0.761522C6.4501 0.273928 7.11142 0 7.80098 0L18.4627 0L24.2676 3.8688V19.9333C24.2676 20.6229 23.9937 21.2842 23.5061 21.7718C23.0185 22.2594 22.3572 22.5333 21.6676 22.5333H20.801V23.4C20.801 24.0896 20.527 24.7509 20.0394 25.2385C19.5519 25.7261 18.8905 26 18.201 26H4.33431C3.64475 26 2.98343 25.7261 2.49584 25.2385C2.00824 24.7509 1.73431 24.0896 1.73431 23.4V6.06667C1.73431 5.3771 2.00824 4.71578 2.49584 4.22819C2.98343 3.74059 3.64475 3.46667 4.33431 3.46667H5.20098V2.6ZM5.20098 5.2H4.33431C4.10446 5.2 3.88402 5.29131 3.72149 5.45384C3.55896 5.61637 3.46765 5.83681 3.46765 6.06667V23.4C3.46765 23.6299 3.55896 23.8503 3.72149 24.0128C3.88402 24.1754 4.10446 24.2667 4.33431 24.2667H18.201C18.4308 24.2667 18.6513 24.1754 18.8138 24.0128C18.9763 23.8503 19.0676 23.6299 19.0676 23.4V22.5333H7.80098C7.11142 22.5333 6.4501 22.2594 5.9625 21.7718C5.47491 21.2842 5.20098 20.6229 5.20098 19.9333V5.2Z" fill="#F45145"/>
</g>
<defs>
<clipPath id="clip0_1_542">
<rect x="0.000976562" width="26" height="26" rx="4" fill="white"/>
</clipPath>
</defs>
</svg>
