<svg width="26" height="26" viewBox="0 0 26 26" fill="none" xmlns="http://www.w3.org/2000/svg">
<g clip-path="url(#clip0_1_534)">
<rect x="-0.000976562" width="26" height="26" rx="4" fill="white"/>
<path d="M3.89902 11.375C5.33309 11.375 6.49902 9.91758 6.49902 8.125C6.49902 6.33242 5.33309 4.875 3.89902 4.875C2.46496 4.875 1.29902 6.33242 1.29902 8.125C1.29902 9.91758 2.46496 11.375 3.89902 11.375ZM22.099 11.375C23.5331 11.375 24.699 9.91758 24.699 8.125C24.699 6.33242 23.5331 4.875 22.099 4.875C20.665 4.875 19.499 6.33242 19.499 8.125C19.499 9.91758 20.665 11.375 22.099 11.375ZM23.399 13H20.799C20.084 13 19.4381 13.3605 18.9668 13.9445C20.604 15.0668 21.7659 17.093 22.0178 19.5H24.699C25.4181 19.5 25.999 18.7738 25.999 17.875V16.25C25.999 14.4574 24.8331 13 23.399 13ZM12.999 13C15.5137 13 17.549 10.4559 17.549 7.3125C17.549 4.16914 15.5137 1.625 12.999 1.625C10.4843 1.625 8.44902 4.16914 8.44902 7.3125C8.44902 10.4559 10.4843 13 12.999 13ZM16.119 14.625H15.7818C14.9368 15.1328 13.9984 15.4375 12.999 15.4375C11.9996 15.4375 11.0653 15.1328 10.2162 14.625H9.87902C7.29527 14.625 5.19902 17.2453 5.19902 20.475V21.9375C5.19902 23.2832 6.07246 24.375 7.14902 24.375H18.849C19.9256 24.375 20.799 23.2832 20.799 21.9375V20.475C20.799 17.2453 18.7028 14.625 16.119 14.625ZM7.03121 13.9445C6.55996 13.3605 5.91402 13 5.19902 13H2.59902C1.16496 13 -0.000976562 14.4574 -0.000976562 16.25V17.875C-0.000976562 18.7738 0.579961 19.5 1.29902 19.5H3.97621C4.23215 17.093 5.39402 15.0668 7.03121 13.9445Z" fill="#6D6AE3"/>
</g>
<defs>
<clipPath id="clip0_1_534">
<rect x="-0.000976562" width="26" height="26" rx="4" fill="white"/>
</clipPath>
</defs>
</svg>
