<svg width="26" height="26" viewBox="0 0 26 26" fill="none" xmlns="http://www.w3.org/2000/svg">
<path d="M2.60001 8.7752C2.60001 7.82705 2.97666 6.91773 3.6471 6.24729C4.31754 5.57685 5.22686 5.2002 6.17501 5.2002H19.825C20.7732 5.2002 21.6825 5.57685 22.3529 6.24729C23.0234 6.91773 23.4 7.82705 23.4 8.7752V10.4002H2.60001V8.7752ZM11.9691 20.8002H6.17501C5.22686 20.8002 4.31754 20.4235 3.6471 19.7531C2.97666 19.0827 2.60001 18.1733 2.60001 17.2252V11.7002H18.85C17.7444 11.6999 16.6538 11.956 15.6639 12.4484C14.674 12.9407 13.8117 13.6559 13.1449 14.5378C12.4781 15.4197 12.0249 16.4442 11.8209 17.5308C11.6168 18.6174 11.6676 19.7365 11.9691 20.8002ZM24.7 18.8502C24.7 20.4017 24.0837 21.8897 22.9866 22.9868C21.8895 24.0839 20.4015 24.7002 18.85 24.7002C17.2985 24.7002 15.8105 24.0839 14.7134 22.9868C13.6163 21.8897 13 20.4017 13 18.8502C13 17.2987 13.6163 15.8107 14.7134 14.7136C15.8105 13.6165 17.2985 13.0002 18.85 13.0002C20.4015 13.0002 21.8895 13.6165 22.9866 14.7136C24.0837 15.8107 24.7 17.2987 24.7 18.8502ZM18.85 15.6002C18.6776 15.6002 18.5123 15.6687 18.3904 15.7906C18.2685 15.9125 18.2 16.0778 18.2 16.2502V18.8502C18.2 19.0226 18.2685 19.1879 18.3904 19.3098C18.5123 19.4317 18.6776 19.5002 18.85 19.5002H20.8C20.9724 19.5002 21.1377 19.4317 21.2596 19.3098C21.3815 19.1879 21.45 19.0226 21.45 18.8502C21.45 18.6778 21.3815 18.5125 21.2596 18.3906C21.1377 18.2687 20.9724 18.2002 20.8 18.2002H19.5V16.2502C19.5 16.0778 19.4315 15.9125 19.3096 15.7906C19.1877 15.6687 19.0224 15.6002 18.85 15.6002Z" fill="#F3F6FB"/>
</svg>
