<svg width="27" height="26" viewBox="0 0 27 26" fill="none" xmlns="http://www.w3.org/2000/svg">
<g clip-path="url(#clip0_1_552)">
<rect x="0.998169" width="26" height="26" rx="4" fill="white"/>
<path fill-rule="evenodd" clip-rule="evenodd" d="M22.0609 10.9736C22.0468 11.9199 22.0343 12.7535 22.5105 13.7399C22.5105 13.7399 23.9166 15.0053 23.7314 16.0203C23.5456 17.0354 21.7142 17.3149 21.7142 17.3149C21.7142 21.417 17.7974 21.1559 15.8425 20.7702C15.8037 20.7625 15.7649 20.7545 15.7261 20.7464C15.1411 20.625 14.7587 20.4999 14.7587 20.4999V21.2707C14.7587 21.2707 14.718 21.3996 14.5924 21.5816C14.5588 21.6304 14.5198 21.6818 14.4732 21.736C14.1065 22.1672 13.3097 22.7419 11.6674 22.7419C10.4302 22.8399 8.31229 22.0301 7.75113 20.8883V17.3951C5.77242 15.9163 4.24817 13.9246 4.24817 11.3425C4.24817 9.19588 5.14409 7.13754 6.73821 5.62034C8.33234 4.10259 10.4947 3.25 12.7496 3.25C14.4658 3.24711 16.1635 3.60301 17.734 4.29488C18.9528 4.77935 20.0295 5.56374 20.8643 6.57529C21.6104 7.61572 22.0275 8.85586 22.062 10.1357C22.069 10.4282 22.0647 10.7055 22.0609 10.9736ZM15.8669 11.8517C15.7824 11.9465 15.738 11.9958 15.4731 11.9958C15.0559 11.9961 14.6478 11.8735 14.2999 11.6431C14.0567 11.8934 13.7593 12.0873 13.4289 12.2103C13.3885 12.2293 13.3494 12.251 13.3119 12.2753C13.125 12.3939 13.014 12.5472 12.9002 12.7281L12.8417 12.8229C12.8135 12.8689 12.7843 12.9171 12.7529 12.9664C12.546 13.2895 12.436 13.665 12.436 14.0487V16.2034H10.2065C10.1502 15.7419 10.0451 15.2983 9.78942 14.9056C9.53203 14.5108 9.18942 14.1788 8.78679 13.9338C8.43765 13.7886 8.13453 13.5512 7.90984 13.247C7.68835 12.9464 7.55516 12.59 7.52525 12.2178C7.18685 11.8713 6.98598 11.4136 6.96007 10.93C6.93416 10.4464 7.08498 9.9698 7.38442 9.58913C7.33289 9.4142 7.30805 9.2325 7.31075 9.05017C7.31058 8.61303 7.45387 8.18792 7.71863 7.84009L8.78679 7.10396C8.95269 6.74308 9.21993 6.43821 9.55596 6.22646C9.7958 6.07504 10.0635 5.97304 10.3433 5.92644C10.623 5.87983 10.9093 5.88958 11.1853 5.95509C11.5315 5.64269 11.9712 5.45341 12.436 5.41667L14.705 5.5705C15.202 5.6887 15.6391 5.98365 15.9346 6.40034H16.0825L17.3933 6.84667C17.7631 7.13328 18.0222 7.53903 18.1268 7.995C18.5733 8.18218 18.9423 8.51673 19.1722 8.94292C19.3997 9.36596 19.4701 9.85238 19.372 10.3198C19.2745 10.7878 19.0145 11.2082 18.6359 11.512L17.2926 11.9876C16.8713 11.9928 16.4579 11.8729 16.1047 11.6431C15.978 11.7271 15.9151 11.797 15.8664 11.8517H15.8669ZM19.4148 13.8125C19.4148 14.028 19.3292 14.2347 19.1769 14.387C19.0245 14.5394 18.8178 14.625 18.6023 14.625C18.3868 14.625 18.1802 14.5394 18.0278 14.387C17.8754 14.2347 17.7898 14.028 17.7898 13.8125C17.7898 13.597 17.8754 13.3904 18.0278 13.238C18.1802 13.0856 18.3868 13 18.6023 13C18.8178 13 19.0245 13.0856 19.1769 13.238C19.3292 13.3904 19.4148 13.597 19.4148 13.8125ZM12.3732 17.3333V18.4167H10.2065V17.3333H12.3732ZM10.2065 19.5V20.5833H12.3732V19.5H10.2065Z" fill="#2ECE98"/>
</g>
<defs>
<clipPath id="clip0_1_552">
<rect x="0.998169" width="26" height="26" rx="4" fill="white"/>
</clipPath>
</defs>
</svg>
