<svg width="26" height="26" viewBox="0 0 26 26" fill="none" xmlns="http://www.w3.org/2000/svg">
<path fill-rule="evenodd" clip-rule="evenodd" d="M9.1 2.6001C8.41044 2.6001 7.74912 2.87403 7.26152 3.36162C6.77393 3.84921 6.5 4.51053 6.5 5.2001V20.8001C6.5 21.4897 6.77393 22.151 7.26152 22.6386C7.74912 23.1262 8.41044 23.4001 9.1 23.4001H16.9C17.5896 23.4001 18.2509 23.1262 18.7385 22.6386C19.2261 22.151 19.5 21.4897 19.5 20.8001V5.2001C19.5 4.51053 19.2261 3.84921 18.7385 3.36162C18.2509 2.87403 17.5896 2.6001 16.9 2.6001H9.1ZM13 20.8001C13.3448 20.8001 13.6754 20.6631 13.9192 20.4193C14.163 20.1755 14.3 19.8449 14.3 19.5001C14.3 19.1553 14.163 18.8247 13.9192 18.5809C13.6754 18.3371 13.3448 18.2001 13 18.2001C12.6552 18.2001 12.3246 18.3371 12.0808 18.5809C11.837 18.8247 11.7 19.1553 11.7 19.5001C11.7 19.8449 11.837 20.1755 12.0808 20.4193C12.3246 20.6631 12.6552 20.8001 13 20.8001Z" fill="#F3F6FB"/>
</svg>
