<svg width="16" height="16" viewBox="0 0 16 16" fill="none" xmlns="http://www.w3.org/2000/svg">
<path fill-rule="evenodd" clip-rule="evenodd" d="M1.79168 5.43969C1.84946 5.49327 1.91723 5.53495 1.99112 5.56235C2.06501 5.58974 2.14357 5.60231 2.22231 5.59934C2.30106 5.59636 2.37845 5.57791 2.45006 5.54503C2.52167 5.51214 2.58611 5.46548 2.63968 5.40769L4.19968 3.72769V10.5997C4.19968 10.7588 4.2629 10.9114 4.37542 11.024C4.48794 11.1365 4.64056 11.1997 4.79969 11.1997C4.95881 11.1997 5.11143 11.1365 5.22395 11.024C5.33647 10.9114 5.39968 10.7588 5.39968 10.5997V3.72769L6.95968 5.40769C7.01326 5.46547 7.0777 5.51213 7.14931 5.54501C7.22093 5.57789 7.29831 5.59634 7.37706 5.59931C7.4558 5.60229 7.53436 5.58972 7.60825 5.56233C7.68213 5.53494 7.7499 5.49327 7.80769 5.43969C7.86547 5.38611 7.91213 5.32167 7.94501 5.25006C7.97789 5.17845 7.99634 5.10106 7.99931 5.02232C8.00228 4.94357 7.98972 4.86501 7.96233 4.79113C7.93494 4.71724 7.89326 4.64947 7.83968 4.59169L5.23969 1.79169C5.18352 1.7311 5.11545 1.68277 5.03973 1.64972C4.96402 1.61667 4.8823 1.59961 4.79969 1.59961C4.71707 1.59961 4.63535 1.61667 4.55964 1.64972C4.48392 1.68277 4.41585 1.7311 4.35968 1.79169L1.75968 4.59169C1.7061 4.64947 1.66442 4.71723 1.63703 4.79112C1.60963 4.86501 1.59706 4.94357 1.60004 5.02232C1.60301 5.10106 1.62146 5.17845 1.65435 5.25006C1.68723 5.32168 1.7339 5.38611 1.79168 5.43969ZM8.19168 10.5597C8.1339 10.6133 8.08723 10.6777 8.05435 10.7493C8.02146 10.8209 8.00301 10.8983 8.00004 10.9771C7.99707 11.0558 8.00963 11.1344 8.03703 11.2083C8.06442 11.2821 8.1061 11.3499 8.15968 11.4077L10.7597 14.2077C10.8159 14.2683 10.8839 14.3166 10.9596 14.3497C11.0353 14.3827 11.1171 14.3998 11.1997 14.3998C11.2823 14.3998 11.364 14.3827 11.4397 14.3497C11.5154 14.3166 11.5835 14.2683 11.6397 14.2077L14.2397 11.4077C14.3479 11.291 14.4053 11.1361 14.3993 10.9771C14.3933 10.818 14.3244 10.6679 14.2077 10.5597C14.091 10.4515 13.9361 10.3941 13.7771 10.4001C13.618 10.4061 13.4679 10.475 13.3597 10.5917L11.7997 12.2717V5.39969C11.7997 5.24056 11.7365 5.08795 11.6239 4.97542C11.5114 4.8629 11.3588 4.79969 11.1997 4.79969C11.0406 4.79969 10.8879 4.8629 10.7754 4.97542C10.6629 5.08795 10.5997 5.24056 10.5997 5.39969V12.2717L9.03969 10.5917C8.98611 10.5339 8.92168 10.4872 8.85006 10.4543C8.77845 10.4215 8.70106 10.403 8.62231 10.4C8.54357 10.3971 8.46501 10.4096 8.39112 10.437C8.31723 10.4644 8.24946 10.5061 8.19168 10.5597Z" fill="#2C4474"/>
</svg>
