<svg width="14" height="14" viewBox="0 0 14 14" fill="none" xmlns="http://www.w3.org/2000/svg">
<path fill-rule="evenodd" clip-rule="evenodd" d="M6.99882 12.9999C10.3125 12.9999 12.9988 10.3136 12.9988 6.99992C12.9988 3.68625 10.3125 0.999919 6.99882 0.999919C3.68515 0.999919 0.99882 3.68625 0.99882 6.99992C0.99882 10.3136 3.68515 12.9999 6.99882 12.9999ZM6.99882 13.6666C10.6808 13.6666 13.6655 10.6819 13.6655 6.99992C13.6655 3.31792 10.6808 0.333252 6.99882 0.333252C3.31682 0.333252 0.332153 3.31792 0.332153 6.99992C0.332153 10.6819 3.31682 13.6666 6.99882 13.6666Z" fill="white"/>
<path d="M2.99915 10.8766C2.99915 10.5323 3.25648 10.2413 3.59915 10.2033C6.17081 9.91859 7.83915 9.94426 10.4051 10.2096C10.5333 10.223 10.6547 10.2735 10.7546 10.3549C10.8546 10.4362 10.9286 10.5449 10.9678 10.6676C11.007 10.7904 11.0096 10.9219 10.9752 11.0461C10.9409 11.1702 10.8711 11.2817 10.7745 11.3669C7.74615 14.0066 6.01548 13.9703 3.21248 11.3696C3.07581 11.2429 2.99915 11.0629 2.99915 10.8769V10.8766Z" fill="white"/>
<path fill-rule="evenodd" clip-rule="evenodd" d="M10.3702 10.5409C7.8245 10.2776 6.18016 10.2529 3.63483 10.5346C3.55104 10.5444 3.4738 10.5847 3.4179 10.6478C3.36199 10.711 3.33134 10.7926 3.33183 10.8769C3.33183 10.9723 3.3715 11.0626 3.4385 11.1253C4.82783 12.4139 5.8805 12.9963 6.9095 12.9999C7.94216 13.0036 9.0515 12.4259 10.5548 11.1159C10.6026 11.0734 10.637 11.0179 10.6538 10.9563C10.6706 10.8946 10.6692 10.8293 10.6496 10.7685C10.63 10.7076 10.5932 10.6537 10.5436 10.6134C10.494 10.573 10.4337 10.548 10.3702 10.5413V10.5409ZM3.56183 9.87193C6.1605 9.58426 7.85316 9.61026 10.4392 9.87793C10.6319 9.89805 10.8146 9.97394 10.9649 10.0963C11.1153 10.2187 11.2266 10.3822 11.2854 10.5669C11.3442 10.7516 11.3479 10.9494 11.296 11.1361C11.2441 11.3229 11.1388 11.4904 10.9932 11.6183C9.46816 12.9476 8.19816 13.6716 6.9075 13.6666C5.61316 13.6619 4.39916 12.9256 2.9855 11.6139C2.88428 11.5196 2.80359 11.4055 2.74848 11.2786C2.69336 11.1518 2.665 11.0149 2.66516 10.8766C2.66468 10.6281 2.7559 10.3881 2.92135 10.2027C3.0868 10.0172 3.31486 9.89933 3.56183 9.87159V9.87193Z" fill="white"/>
<path d="M9.66549 5.66658C9.66549 6.37382 9.38454 7.0521 8.88444 7.55219C8.38434 8.05229 7.70606 8.33324 6.99882 8.33324C6.29158 8.33324 5.6133 8.05229 5.1132 7.55219C4.6131 7.0521 4.33215 6.37382 4.33215 5.66658C4.33215 4.95933 4.6131 4.28105 5.1132 3.78096C5.6133 3.28086 6.29158 2.99991 6.99882 2.99991C7.70606 2.99991 8.38434 3.28086 8.88444 3.78096C9.38454 4.28105 9.66549 4.95933 9.66549 5.66658Z" fill="white"/>
<path fill-rule="evenodd" clip-rule="evenodd" d="M6.99882 7.66658C7.52925 7.66658 8.03796 7.45586 8.41303 7.08079C8.78811 6.70572 8.99882 6.19701 8.99882 5.66658C8.99882 5.13614 8.78811 4.62743 8.41303 4.25236C8.03796 3.87729 7.52925 3.66658 6.99882 3.66658C6.46839 3.66658 5.95968 3.87729 5.58461 4.25236C5.20953 4.62743 4.99882 5.13614 4.99882 5.66658C4.99882 6.19701 5.20953 6.70572 5.58461 7.08079C5.95968 7.45586 6.46839 7.66658 6.99882 7.66658ZM6.99882 8.33324C7.70606 8.33324 8.38434 8.05229 8.88444 7.55219C9.38454 7.0521 9.66549 6.37382 9.66549 5.66658C9.66549 4.95933 9.38454 4.28105 8.88444 3.78096C8.38434 3.28086 7.70606 2.99991 6.99882 2.99991C6.29158 2.99991 5.6133 3.28086 5.1132 3.78096C4.6131 4.28105 4.33215 4.95933 4.33215 5.66658C4.33215 6.37382 4.6131 7.0521 5.1132 7.55219C5.6133 8.05229 6.29158 8.33324 6.99882 8.33324Z" fill="white"/>
</svg>
