<svg width="26" height="26" viewBox="0 0 26 26" fill="none" xmlns="http://www.w3.org/2000/svg">
<path d="M4.88704 20.8H21.111C22.3364 19.2712 23.1048 17.4273 23.3278 15.4808C23.5508 13.5343 23.2193 11.5644 22.3715 9.79812C21.5236 8.03182 20.194 6.54101 18.5358 5.49749C16.8776 4.45397 14.9583 3.9002 12.999 3.89999C11.0398 3.9002 9.1205 4.45397 7.46229 5.49749C5.80408 6.54101 4.47445 8.03182 3.62663 9.79812C2.77881 11.5644 2.4473 13.5343 2.6703 15.4808C2.89329 17.4273 3.66173 19.2712 4.88704 20.8ZM12.999 5.19999C13.714 5.19999 14.299 5.78499 14.299 6.49999C14.299 7.21499 13.714 7.79999 12.999 7.79999C12.284 7.79999 11.699 7.21499 11.699 6.49999C11.699 5.78499 12.284 5.19999 12.999 5.19999ZM7.79905 7.79999C8.51405 7.79999 9.09905 8.38499 9.09905 9.09999C9.09905 9.81499 8.51405 10.4 7.79905 10.4C7.08404 10.4 6.49905 9.81499 6.49905 9.09999C6.49905 8.38499 7.08404 7.79999 7.79905 7.79999ZM18.199 7.79999C18.914 7.79999 19.499 8.38499 19.499 9.09999C19.499 9.81499 18.914 10.4 18.199 10.4C17.484 10.4 16.899 9.81499 16.899 9.09999C16.899 8.38499 17.484 7.79999 18.199 7.79999ZM11.218 15.015L15.599 9.09999V16.9C15.599 18.33 14.429 19.5 12.999 19.5C11.569 19.5 10.399 18.33 10.399 16.9C10.399 16.159 10.711 15.496 11.218 15.015ZM5.19904 13C5.91404 13 6.49905 13.585 6.49905 14.3C6.49905 15.015 5.91404 15.6 5.19904 15.6C4.48404 15.6 3.89904 15.015 3.89904 14.3C3.89904 13.585 4.48404 13 5.19904 13ZM20.799 13C21.514 13 22.099 13.585 22.099 14.3C22.099 15.015 21.514 15.6 20.799 15.6C20.084 15.6 19.499 15.015 19.499 14.3C19.499 13.585 20.084 13 20.799 13ZM14.299 16.9C14.299 16.185 13.714 15.6 12.999 15.6C12.284 15.6 11.699 16.185 11.699 16.9C11.699 17.615 12.284 18.2 12.999 18.2C13.714 18.2 14.299 17.615 14.299 16.9Z" fill="#FDFEFF"/>
</svg>
