<svg width="16" height="16" viewBox="0 0 16 16" fill="none" xmlns="http://www.w3.org/2000/svg">
<path d="M4.457 12.25L6.5855 10.1215L5.8785 9.41449L3.75 11.543L3.3535 11.1465C3.25974 11.0528 3.13258 11.0001 3 11.0001C2.86742 11.0001 2.74026 11.0528 2.6465 11.1465L0.6465 13.1465C0.552765 13.2403 0.500107 13.3674 0.500107 13.5C0.500107 13.6326 0.552765 13.7597 0.6465 13.8535L2.1465 15.3535C2.24026 15.4472 2.36742 15.4999 2.5 15.4999C2.63258 15.4999 2.75974 15.4472 2.8535 15.3535L4.8535 13.3535C4.94724 13.2597 4.99989 13.1326 4.99989 13C4.99989 12.8674 4.94724 12.7403 4.8535 12.6465L4.457 12.25ZM2.5 14.293L1.707 13.5L3 12.207L3.793 13L2.5 14.293Z" fill="#2C4474"/>
<path d="M12 15C11.2046 14.9991 10.4421 14.6827 9.8797 14.1203C9.31729 13.5579 9.00093 12.7954 9 12C9.00022 11.7386 9.03554 11.4785 9.105 11.2265L4.774 6.89499C4.52186 6.96445 4.26153 6.99976 4 6.99999C3.51121 7.00194 3.02941 6.88396 2.59684 6.65638C2.16426 6.42879 1.79412 6.09857 1.51887 5.69465C1.24362 5.29073 1.07166 4.82545 1.01807 4.33961C0.964481 3.85376 1.0309 3.36219 1.2115 2.90799L1.4905 2.19749L3.1465 3.85349C3.24166 3.94436 3.36817 3.99506 3.49975 3.99506C3.63133 3.99506 3.75784 3.94436 3.853 3.85349C3.89947 3.8071 3.93634 3.75199 3.9615 3.69134C3.98665 3.63068 3.9996 3.56566 3.9996 3.49999C3.9996 3.43432 3.98665 3.3693 3.9615 3.30864C3.93634 3.24799 3.89947 3.19288 3.853 3.14649L2.1975 1.48949L2.909 1.21099C3.36319 1.03071 3.85467 0.964561 4.34036 1.01833C4.82606 1.0721 5.29116 1.24415 5.69492 1.51941C6.09868 1.79467 6.42879 2.16475 6.65631 2.59721C6.88384 3.02967 7.00185 3.51133 7 3.99999C6.99978 4.26136 6.96446 4.52152 6.895 4.77349L11.2265 9.10499C11.4785 9.03562 11.7386 9.00031 12 8.99999C12.4888 8.99804 12.9706 9.11602 13.4032 9.34361C13.8357 9.57119 14.2059 9.90141 14.4811 10.3053C14.7564 10.7093 14.9283 11.1745 14.9819 11.6604C15.0355 12.1462 14.9691 12.6378 14.7885 13.092L14.51 13.8025L12.8535 12.1465C12.7583 12.0556 12.6318 12.0049 12.5002 12.0049C12.3687 12.0049 12.2422 12.0556 12.147 12.1465C12.1005 12.1929 12.0636 12.2479 12.0384 12.3086C12.0132 12.3692 12.0002 12.4342 12.0001 12.4999C12.0001 12.5656 12.013 12.6306 12.0381 12.6913C12.0632 12.7519 12.1001 12.8071 12.1465 12.8535L13.803 14.51L13.092 14.789C12.7445 14.9272 12.374 14.9988 12 15ZM5.031 5.73799L10.2615 10.9685L10.142 11.2735C10.0249 11.5662 9.97912 11.8826 10.0085 12.1966C10.0378 12.5105 10.1414 12.8129 10.3107 13.0789C10.48 13.3449 10.7102 13.5668 10.9822 13.7263C11.2542 13.8857 11.5602 13.9782 11.875 13.996L11.4395 13.561C11.3002 13.4217 11.1897 13.2563 11.1143 13.0743C11.0389 12.8923 11.0001 12.6972 11.0001 12.5002C11.0001 12.3032 11.0389 12.1082 11.1143 11.9262C11.1897 11.7442 11.3002 11.5788 11.4395 11.4395C11.7253 11.1666 12.1052 11.0144 12.5002 11.0144C12.8953 11.0144 13.2752 11.1666 13.561 11.4395L13.996 11.875C13.9781 11.5602 13.8856 11.2541 13.7261 10.9821C13.5665 10.7102 13.3446 10.48 13.0786 10.3107C12.8126 10.1414 12.5101 10.0378 12.1962 10.0085C11.8822 9.97914 11.5658 10.0249 11.273 10.142L10.9685 10.2615L5.7385 5.03149L5.8585 4.72649C5.97561 4.43371 6.02138 4.11726 5.99202 3.8033C5.96266 3.48933 5.85902 3.18686 5.68965 2.92086C5.52029 2.65487 5.29006 2.43299 5.018 2.27357C4.74593 2.11414 4.43984 2.02174 4.125 2.00399L4.56 2.43899C4.69931 2.57828 4.80983 2.74365 4.88522 2.92566C4.96062 3.10766 4.99943 3.30274 4.99943 3.49974C4.99943 3.69674 4.96062 3.89182 4.88522 4.07382C4.80983 4.25583 4.69931 4.4212 4.56 4.56049C4.27425 4.83334 3.89435 4.98559 3.49925 4.98559C3.10415 4.98559 2.72425 4.83334 2.4385 4.56049L2.0035 4.12499C2.02132 4.43978 2.11378 4.74582 2.27324 5.01782C2.4327 5.28982 2.65458 5.51999 2.92056 5.6893C3.18655 5.85861 3.48899 5.96221 3.80292 5.99154C4.11685 6.02087 4.43326 5.9751 4.726 5.85799L5.031 5.73799Z" fill="#2C4474"/>
<path d="M14.5615 1.42497C14.2757 1.15212 13.8958 0.999878 13.5007 0.999878C13.1057 0.999878 12.7257 1.15212 12.44 1.42497L8.7 5.16498L9.407 5.87197L13.147 2.13197C13.2422 2.04107 13.3688 1.99036 13.5005 1.99036C13.6322 1.99036 13.7588 2.04107 13.854 2.13197C13.9475 2.22587 14 2.35297 14 2.48548C14 2.61798 13.9475 2.74508 13.854 2.83897L10.114 6.57897L10.821 7.28648L14.561 3.54647C14.842 3.26497 14.9998 2.88347 14.9998 2.48572C14.9998 2.08798 14.842 1.70648 14.561 1.42497H14.5615Z" fill="#2C4474"/>
</svg>
