<svg width="16" height="16" viewBox="0 0 16 16" fill="none" xmlns="http://www.w3.org/2000/svg">
<path d="M10.75 4.5C11.1642 4.5 11.5 4.16421 11.5 3.75C11.5 3.33579 11.1642 3 10.75 3C10.3358 3 10 3.33579 10 3.75C10 4.16421 10.3358 4.5 10.75 4.5Z" fill="#2C4474"/>
<path d="M7.207 10H4.5V7.293L7.515 4.278C7.50518 4.18566 7.50017 4.09287 7.5 4C7.5 3.40666 7.67595 2.82664 8.00559 2.33329C8.33524 1.83994 8.80377 1.45543 9.35195 1.22836C9.90013 1.0013 10.5033 0.94189 11.0853 1.05765C11.6672 1.1734 12.2018 1.45912 12.6213 1.87868C13.0409 2.29824 13.3266 2.83279 13.4424 3.41473C13.5581 3.99667 13.4987 4.59987 13.2716 5.14805C13.0446 5.69623 12.6601 6.16477 12.1667 6.49441C11.6734 6.82405 11.0933 7 10.5 7C10.4071 6.99982 10.3143 6.99482 10.222 6.985L7.207 10ZM5.5 9H6.793L9.878 5.915L10.137 5.9625C10.2566 5.98622 10.3781 5.99877 10.5 6C10.9182 6.00515 11.3277 5.88068 11.6723 5.6437C12.0169 5.40673 12.2797 5.06886 12.4246 4.67653C12.5694 4.28419 12.5892 3.85662 12.4813 3.45256C12.3734 3.0485 12.143 2.68777 11.8218 2.41993C11.5006 2.15208 11.1043 1.99026 10.6875 1.95669C10.2706 1.92312 9.85354 2.01945 9.49361 2.23244C9.13369 2.44544 8.84854 2.76465 8.67734 3.14623C8.50615 3.52781 8.45729 3.95304 8.5375 4.3635L8.585 4.622L5.5 7.707V9ZM14 10H9.5V11H14V14H2V11H3V10H2C1.73486 10.0003 1.48066 10.1057 1.29319 10.2932C1.10571 10.4807 1.00026 10.7349 1 11V14C1.00026 14.2651 1.10571 14.5193 1.29319 14.7068C1.48066 14.8943 1.73486 14.9997 2 15H14C14.2651 14.9997 14.5193 14.8943 14.7068 14.7068C14.8943 14.5193 14.9997 14.2651 15 14V11C14.9997 10.7349 14.8943 10.4807 14.7068 10.2932C14.5193 10.1057 14.2651 10.0003 14 10Z" fill="#2C4474"/>
<path d="M3.5 13C3.77614 13 4 12.7761 4 12.5C4 12.2239 3.77614 12 3.5 12C3.22386 12 3 12.2239 3 12.5C3 12.7761 3.22386 13 3.5 13Z" fill="#2C4474"/>
</svg>
