<svg width="16" height="16" viewBox="0 0 16 16" fill="none" xmlns="http://www.w3.org/2000/svg">
<g clip-path="url(#clip0_102_228)">
<path d="M16.0375 8.00001C16.0378 8.03858 16.0274 8.07648 16.0076 8.10956C15.9877 8.14263 15.9592 8.1696 15.925 8.18751L13.6975 9.52501C13.6641 9.54631 13.6256 9.55824 13.586 9.55956C13.5464 9.56088 13.5072 9.55154 13.4725 9.53251C13.4383 9.51275 13.4099 9.48432 13.3901 9.45009C13.3704 9.41586 13.36 9.37703 13.36 9.33751V8.44751H7.3925C8.025 9.43751 8.405 11.12 9.1325 11.12H9.8V10.45C9.79967 10.4207 9.80519 10.3916 9.81625 10.3645C9.82732 10.3373 9.84369 10.3127 9.86442 10.2919C9.88515 10.2712 9.90981 10.2548 9.93696 10.2438C9.9641 10.2327 9.99319 10.2272 10.0225 10.2275H12.25C12.2793 10.2272 12.3084 10.2327 12.3355 10.2438C12.3627 10.2548 12.3874 10.2712 12.4081 10.2919C12.4288 10.3127 12.4452 10.3373 12.4562 10.3645C12.4673 10.3916 12.4728 10.4207 12.4725 10.45V12.6775C12.4728 12.7068 12.4673 12.7359 12.4562 12.7631C12.4452 12.7902 12.4288 12.8149 12.4081 12.8356C12.3874 12.8563 12.3627 12.8727 12.3355 12.8838C12.3084 12.8948 12.2793 12.9003 12.25 12.9H10.0225C9.99319 12.9003 9.9641 12.8948 9.93696 12.8838C9.90981 12.8727 9.88515 12.8563 9.86442 12.8356C9.84369 12.8149 9.82732 12.7902 9.81625 12.7631C9.80519 12.7359 9.79967 12.7068 9.8 12.6775V12.01H9.1325C7.2475 12.01 7.105 8.44751 6.015 8.44751H3.5075C3.305 9.21251 2.61 9.78501 1.7825 9.78501C0.8 9.78251 0 8.98251 0 8.00001C0 7.01751 0.8 6.21751 1.7825 6.21751C2.61 6.21751 3.3075 6.78751 3.5075 7.55501C4.485 7.55501 4.605 7.79251 5.3725 6.04501C6.375 3.81751 6.825 3.99251 8.095 3.99251C8.20051 3.69533 8.40764 3.44498 8.67981 3.28569C8.95198 3.12639 9.27168 3.06839 9.58246 3.12192C9.89324 3.17546 10.1751 3.33708 10.3783 3.57826C10.5815 3.81944 10.6929 4.12465 10.6929 4.44001C10.6929 4.75537 10.5815 5.06059 10.3783 5.30176C10.1751 5.54294 9.89324 5.70457 9.58246 5.7581C9.27168 5.81163 8.95198 5.75363 8.67981 5.59433C8.40764 5.43504 8.20051 5.18469 8.095 4.88751H7.35C6.6225 4.88751 6.2425 6.57251 5.61 7.56001H13.3625V6.67001C13.3625 6.58751 13.405 6.51751 13.475 6.47501C13.545 6.43251 13.635 6.44001 13.6975 6.48251L15.925 7.82001C15.995 7.84751 16.0375 7.92251 16.0375 8.00001Z" fill="#2C4474"/>
</g>
<defs>
<clipPath id="clip0_102_228">
<rect width="16" height="16" fill="white"/>
</clipPath>
</defs>
</svg>
