<svg width="16" height="16" viewBox="0 0 16 16" fill="none" xmlns="http://www.w3.org/2000/svg">
<g clip-path="url(#clip0_102_182)">
<path d="M15.9921 5.3805L15.3211 9.22978C15.2384 9.65499 14.8996 9.91354 14.5089 9.91839H4.72677L4.53256 11.0131H13.8556C14.3465 11.0504 14.6795 11.3982 14.6855 11.843C14.6498 12.3329 14.302 12.6668 13.8556 12.6729H3.54375C2.98605 12.6227 2.65351 12.1782 2.71385 11.6841L3.15528 9.28271L2.48431 2.53764L0.577332 1.93734C0.111319 1.75231 -0.0788813 1.33074 0.0299587 0.895563C0.210932 0.44203 0.644572 0.234816 1.07173 0.34819L3.50843 1.12511C3.83669 1.24816 4.02553 1.51687 4.07345 1.8314L4.21471 3.17335L15.2681 4.40935C15.776 4.51936 16.0517 4.92164 15.9921 5.3805ZM6.0704 14.4154C6.0704 15.1151 5.5032 15.6823 4.80349 15.6823C4.1038 15.6823 3.5366 15.1151 3.5366 14.4154C3.5366 13.7157 4.10381 13.1485 4.80349 13.1485C5.50319 13.1485 6.0704 13.7157 6.0704 14.4154ZM13.6338 14.4154C13.6338 15.1151 13.0665 15.6823 12.3668 15.6823C11.6671 15.6823 11.0999 15.1151 11.0999 14.4154C11.0999 13.7157 11.6671 13.1485 12.3668 13.1485C13.0665 13.1485 13.6338 13.7157 13.6338 14.4154Z" fill="#2C4474"/>
</g>
<defs>
<clipPath id="clip0_102_182">
<rect width="16" height="16" fill="white"/>
</clipPath>
</defs>
</svg>
