<svg width="16" height="16" viewBox="0 0 16 16" fill="none" xmlns="http://www.w3.org/2000/svg">
<path d="M10.6667 11.3333H8.66667V8.66667H7.33333V11.3333H5.33333V12H1.33333V13.3333H5.33333V14H10.6667V13.3333H14.6667V12H10.6667V11.3333ZM10 8.66667H12C12.1768 8.66667 12.3464 8.59643 12.4714 8.4714C12.5964 8.34638 12.6667 8.17681 12.6667 8V3.33333C12.6667 3.15652 12.5964 2.98695 12.4714 2.86193C12.3464 2.7369 12.1768 2.66667 12 2.66667H8L7.33333 2H4C3.82319 2 3.65362 2.07024 3.52859 2.19526C3.40357 2.32029 3.33333 2.48986 3.33333 2.66667V8C3.33333 8.17681 3.40357 8.34638 3.52859 8.4714C3.65362 8.59643 3.82319 8.66667 4 8.66667H10Z" fill="#2C4474"/>
</svg>
