<svg width="16" height="16" viewBox="0 0 16 16" fill="none" xmlns="http://www.w3.org/2000/svg">
<path d="M12.6667 6C12.254 6.00116 11.8519 6.12992 11.5153 6.36863C11.1787 6.60734 10.9242 6.9443 10.7867 7.33334H2C1.82319 7.33334 1.65362 7.40358 1.52859 7.5286C1.40357 7.65362 1.33333 7.82319 1.33333 8C1.33333 8.17682 1.40357 8.34638 1.52859 8.47141C1.65362 8.59643 1.82319 8.66667 2 8.66667H10.7867C10.909 9.01259 11.1241 9.3182 11.4084 9.55005C11.6928 9.78191 12.0354 9.93107 12.3989 9.98123C12.7624 10.0314 13.1326 9.98058 13.4691 9.83439C13.8057 9.68821 14.0955 9.45227 14.3069 9.1524C14.5183 8.85253 14.6432 8.50028 14.6678 8.1342C14.6924 7.76813 14.6158 7.40233 14.4465 7.07685C14.2771 6.75137 14.0215 6.47875 13.7076 6.28882C13.3937 6.09889 13.0336 5.99897 12.6667 6ZM2 4.66667H2.78667C2.9268 5.05277 3.18242 5.38636 3.51878 5.62211C3.85513 5.85786 4.25592 5.98432 4.66667 5.98432C5.07741 5.98432 5.4782 5.85786 5.81456 5.62211C6.15091 5.38636 6.40653 5.05277 6.54667 4.66667H14C14.1768 4.66667 14.3464 4.59643 14.4714 4.47141C14.5964 4.34638 14.6667 4.17681 14.6667 4C14.6667 3.82319 14.5964 3.65362 14.4714 3.5286C14.3464 3.40358 14.1768 3.33334 14 3.33334H6.54667C6.40653 2.94724 6.15091 2.61364 5.81456 2.3779C5.4782 2.14215 5.07741 2.01569 4.66667 2.01569C4.25592 2.01569 3.85513 2.14215 3.51878 2.3779C3.18242 2.61364 2.9268 2.94724 2.78667 3.33334H2C1.82319 3.33334 1.65362 3.40358 1.52859 3.5286C1.40357 3.65362 1.33333 3.82319 1.33333 4C1.33333 4.17681 1.40357 4.34638 1.52859 4.47141C1.65362 4.59643 1.82319 4.66667 2 4.66667ZM14 11.3333H9.21333C9.0732 10.9472 8.81758 10.6136 8.48122 10.3779C8.14486 10.1422 7.74408 10.0157 7.33333 10.0157C6.92259 10.0157 6.5218 10.1422 6.18544 10.3779C5.84908 10.6136 5.59347 10.9472 5.45333 11.3333H2C1.82319 11.3333 1.65362 11.4036 1.52859 11.5286C1.40357 11.6536 1.33333 11.8232 1.33333 12C1.33333 12.1768 1.40357 12.3464 1.52859 12.4714C1.65362 12.5964 1.82319 12.6667 2 12.6667H5.45333C5.59347 13.0528 5.84908 13.3864 6.18544 13.6221C6.5218 13.8579 6.92259 13.9843 7.33333 13.9843C7.74408 13.9843 8.14486 13.8579 8.48122 13.6221C8.81758 13.3864 9.0732 13.0528 9.21333 12.6667H14C14.1768 12.6667 14.3464 12.5964 14.4714 12.4714C14.5964 12.3464 14.6667 12.1768 14.6667 12C14.6667 11.8232 14.5964 11.6536 14.4714 11.5286C14.3464 11.4036 14.1768 11.3333 14 11.3333Z" fill="#2C4474"/>
</svg>
