<svg width="16" height="16" viewBox="0 0 16 16" fill="none" xmlns="http://www.w3.org/2000/svg">
<path d="M1.6 5.4C1.6 4.81652 1.83178 4.25695 2.24436 3.84437C2.65694 3.43179 3.21652 3.2 3.8 3.2H12.2C12.7835 3.2 13.3431 3.43179 13.7556 3.84437C14.1682 4.25695 14.4 4.81652 14.4 5.4V6.4H1.6V5.4ZM7.3656 12.8H3.8C3.21652 12.8 2.65694 12.5682 2.24436 12.1556C1.83178 11.7431 1.6 11.1835 1.6 10.6V7.2H11.6C10.9196 7.19982 10.2485 7.35741 9.63931 7.66041C9.03014 7.9634 8.49953 8.40353 8.08918 8.94622C7.67883 9.48891 7.39992 10.1194 7.27437 10.7881C7.14881 11.4567 7.18004 12.1454 7.3656 12.8ZM15.2 11.6C15.2 12.5548 14.8207 13.4705 14.1456 14.1456C13.4705 14.8207 12.5548 15.2 11.6 15.2C10.6452 15.2 9.72955 14.8207 9.05441 14.1456C8.37928 13.4705 8 12.5548 8 11.6C8 10.6452 8.37928 9.72955 9.05441 9.05442C9.72955 8.37929 10.6452 8 11.6 8C12.5548 8 13.4705 8.37929 14.1456 9.05442C14.8207 9.72955 15.2 10.6452 15.2 11.6ZM11.6 9.6C11.4939 9.6 11.3922 9.64214 11.3172 9.71716C11.2421 9.79217 11.2 9.89391 11.2 10V11.6C11.2 11.7061 11.2421 11.8078 11.3172 11.8828C11.3922 11.9579 11.4939 12 11.6 12H12.8C12.9061 12 13.0078 11.9579 13.0828 11.8828C13.1579 11.8078 13.2 11.7061 13.2 11.6C13.2 11.4939 13.1579 11.3922 13.0828 11.3172C13.0078 11.2421 12.9061 11.2 12.8 11.2H12V10C12 9.89391 11.9579 9.79217 11.8828 9.71716C11.8078 9.64214 11.7061 9.6 11.6 9.6Z" fill="#2C4474"/>
</svg>
