<svg width="47" height="40" viewBox="0 0 47 40" fill="none" xmlns="http://www.w3.org/2000/svg">
<g clip-path="url(#clip0_1_692)">
<path d="M25.88 15.03V35.45C25.88 37.13 24.5 38.51 22.82 38.51H22.44C20.76 38.51 19.38 37.13 19.38 35.45V18.47H19.33V11.97H22.82C24.5 11.97 25.88 13.35 25.88 15.03Z" stroke="#2E3192" stroke-miterlimit="10"/>
<path d="M45.58 3.34V4.15C45.58 5.71 44.3 6.99 42.74 6.99H19.34V35.64C19.34 37.32 17.96 38.7 16.28 38.7H15.9C14.22 38.7 12.84 37.32 12.84 35.64V7H3.56C1.88 7 0.5 5.62 0.5 3.94V3.56C0.5 1.88 1.88 0.5 3.56 0.5H42.74C44.3 0.5 45.58 1.78 45.58 3.34Z" stroke="#2E3192" stroke-miterlimit="10"/>
<path d="M46.1803 14.82V15.63C46.1803 17.19 44.9003 18.47 43.3403 18.47H38.8803V15.03C38.8803 13.35 37.5003 11.97 35.8203 11.97H43.3403C44.9003 11.97 46.1803 13.25 46.1803 14.81V14.82Z" stroke="#2E3192" stroke-miterlimit="10"/>
<path d="M29.32 11.97H28.94C27.25 11.97 25.88 13.34 25.88 15.03V35.65C25.88 37.34 27.25 38.71 28.94 38.71H29.32C31.01 38.71 32.38 37.34 32.38 35.65V15.03C32.38 13.34 31.01 11.97 29.32 11.97Z" stroke="#2E3192" stroke-miterlimit="10"/>
<path d="M35.82 11.97H35.44C33.75 11.97 32.38 13.34 32.38 15.03V35.65C32.38 37.34 33.75 38.71 35.44 38.71H35.82C37.51 38.71 38.88 37.34 38.88 35.65V15.03C38.88 13.34 37.51 11.97 35.82 11.97Z" stroke="#2E3192" stroke-miterlimit="10"/>
</g>
<defs>
<clipPath id="clip0_1_692">
<rect width="46.68" height="39.21" fill="white"/>
</clipPath>
</defs>
</svg>
