<svg width="16" height="16" viewBox="0 0 16 16" fill="none" xmlns="http://www.w3.org/2000/svg">
<g clip-path="url(#clip0_102_315)">
<path fill-rule="evenodd" clip-rule="evenodd" d="M10.6667 6.00004C10.6667 6.70728 10.3857 7.38556 9.88562 7.88566C9.38552 8.38576 8.70725 8.66671 8 8.66671C7.29276 8.66671 6.61448 8.38576 6.11438 7.88566C5.61429 7.38556 5.33334 6.70728 5.33334 6.00004C5.33334 5.2928 5.61429 4.61452 6.11438 4.11442C6.61448 3.61433 7.29276 3.33337 8 3.33337C8.70725 3.33337 9.38552 3.61433 9.88562 4.11442C10.3857 4.61452 10.6667 5.2928 10.6667 6.00004ZM9.33334 6.00004C9.33334 6.35366 9.19286 6.6928 8.94281 6.94285C8.69276 7.1929 8.35362 7.33337 8 7.33337C7.64638 7.33337 7.30724 7.1929 7.05719 6.94285C6.80715 6.6928 6.66667 6.35366 6.66667 6.00004C6.66667 5.64642 6.80715 5.30728 7.05719 5.05723C7.30724 4.80718 7.64638 4.66671 8 4.66671C8.35362 4.66671 8.69276 4.80718 8.94281 5.05723C9.19286 5.30728 9.33334 5.64642 9.33334 6.00004Z" fill="#2C4474"/>
<path fill-rule="evenodd" clip-rule="evenodd" d="M8 0.666687C3.95 0.666687 0.666668 3.95002 0.666668 8.00002C0.666668 12.05 3.95 15.3334 8 15.3334C12.05 15.3334 15.3333 12.05 15.3333 8.00002C15.3333 3.95002 12.05 0.666687 8 0.666687ZM2 8.00002C2 9.39335 2.47533 10.676 3.272 11.6947C3.83149 10.96 4.55327 10.3645 5.38096 9.9549C6.20865 9.54527 7.11983 9.33255 8.04333 9.33335C8.95489 9.33249 9.85461 9.5397 10.674 9.93921C11.4933 10.3387 12.2106 10.92 12.7713 11.6387C13.349 10.8811 13.7379 9.99683 13.9059 9.05908C14.074 8.12133 14.0163 7.15704 13.7377 6.24601C13.459 5.33498 12.9675 4.50339 12.3037 3.82005C11.6398 3.1367 10.8228 2.62126 9.92026 2.31636C9.01768 2.01146 8.05547 1.92587 7.11324 2.06667C6.17102 2.20747 5.27586 2.57061 4.50185 3.12606C3.72783 3.6815 3.09721 4.41327 2.66215 5.26082C2.2271 6.10837 2.00012 7.04733 2 8.00002ZM8 14C6.62263 14.0021 5.28685 13.5283 4.21867 12.6587C4.64862 12.0432 5.22089 11.5406 5.8868 11.1938C6.5527 10.847 7.29253 10.6662 8.04333 10.6667C8.78478 10.6661 9.51566 10.8424 10.1753 11.181C10.8349 11.5195 11.4042 12.0106 11.836 12.6134C10.7595 13.5112 9.40172 14.002 8 14Z" fill="#2C4474"/>
</g>
<defs>
<clipPath id="clip0_102_315">
<rect width="16" height="16" fill="white"/>
</clipPath>
</defs>
</svg>
