<svg width="16" height="16" viewBox="0 0 16 16" fill="none" xmlns="http://www.w3.org/2000/svg">
<g clip-path="url(#clip0_102_218)">
<path d="M7.99152 0C3.57664 0.0048 0 3.58496 0 8C0.00225302 9.25313 0.298859 10.4882 0.865915 11.6057C1.43297 12.7232 2.25462 13.6918 3.26464 14.4336C3.22224 14.1086 3.23056 13.7731 3.28336 13.4413C2.75548 12.9831 2.2968 12.4507 1.9216 11.861H3.9128C4.10192 11.5658 4.2968 11.2738 4.6368 11.061C4.4376 10.245 4.31584 9.3464 4.29344 8.4H4.5088C4.57269 8.11986 4.67669 7.85041 4.8176 7.6H4.29872C4.33264 6.6504 4.4656 5.75136 4.6768 4.9392H7.6V6.36128C7.8829 6.40454 8.15465 6.50259 8.4 6.64992V4.9392H11.4712C11.5128 5.09872 11.5504 5.2624 11.5856 5.42832C11.8548 5.38709 12.1282 5.38079 12.399 5.4096C12.3681 5.25214 12.334 5.09531 12.2968 4.9392H14.5192C14.8519 5.64765 15.0662 6.40587 15.1536 7.18368C15.2464 7.99152 15.2482 8.93968 14.9542 9.86704C14.8589 10.2213 14.7366 10.5678 14.5885 10.9035C14.769 11.0934 14.9875 11.273 15.2072 11.4562C15.7267 10.3779 15.9976 9.19685 16 8C16 3.58176 12.4182 0 8 0H7.99152ZM8.4 0.90912C9.24288 1.05248 10.0483 1.74688 10.6829 2.89904C10.8874 3.2704 11.0701 3.68736 11.2282 4.13904H8.4V0.90912ZM7.6 0.94064V4.13904H4.92C5.07808 3.68736 5.2608 3.2704 5.46528 2.89904C6.0624 1.81456 6.81136 1.13632 7.6 0.9408V0.94064ZM5.7568 1.15712C5.38496 1.53344 5.0512 1.99232 4.76432 2.51312C4.49552 3.00112 4.26432 3.54784 4.0744 4.13904H1.9216C2.8072 2.74608 4.1576 1.67984 5.7568 1.15712ZM10.4624 1.2312C11.9661 1.77728 13.2336 2.81008 14.0784 4.13904H12.0728C11.8834 3.54784 11.6525 3.00112 11.3837 2.51312C11.1155 2.02592 10.8056 1.59328 10.4626 1.2312H10.4624ZM1.48112 4.9392H3.8504C3.6512 5.76512 3.52912 6.6608 3.49792 7.60016H0.81152C0.861214 6.67839 1.08853 5.7749 1.48096 4.93936L1.48112 4.9392ZM0.81152 8.4H3.49344C3.51408 9.33696 3.62464 10.2326 3.81248 11.0608H1.48096C1.08853 10.2253 0.861214 9.32177 0.81152 8.4Z" fill="#2C4474"/>
<path d="M12.16 6.04303C10.8344 6.04303 9.76 7.11759 9.76 8.44303C9.76 9.76847 10.8344 10.843 12.16 10.843C13.4853 10.843 14.56 9.76847 14.56 8.44303C14.56 7.11759 13.4853 6.04303 12.16 6.04303ZM12.16 11.1987C9.5088 11.1987 8.32 12.3877 8.32 15.0387V15.3587C8.332 15.9891 8.61072 16.0077 9.2 15.9987H15.12C15.8712 15.9981 16.0051 15.9995 16 15.3587V15.0387C16 12.3877 14.8109 11.1987 12.16 11.1987ZM7.04 6.94239C5.95408 6.94239 5.07344 7.82303 5.07344 8.90911C5.07344 9.99503 5.95408 10.8753 7.04 10.8753C8.12592 10.8753 9.0064 9.99503 9.0064 8.90895C9.0064 7.82303 8.12592 6.94255 7.04 6.94255V6.94239ZM7.04 11.1665C4.868 11.1665 3.89376 12.1409 3.89376 14.3128V14.575C3.90368 15.0915 4.132 15.1067 4.61472 15.0993H7.6744C7.59632 13.8053 7.97856 12.4309 8.93056 11.5571C8.44864 11.2937 7.82256 11.1665 7.04 11.1665Z" fill="#2C4474"/>
</g>
<defs>
<clipPath id="clip0_102_218">
<rect width="16" height="16" fill="white"/>
</clipPath>
</defs>
</svg>
