<svg width="16" height="16" viewBox="0 0 16 16" fill="none" xmlns="http://www.w3.org/2000/svg">
<path fill-rule="evenodd" clip-rule="evenodd" d="M5.6 1.6C5.17565 1.6 4.76869 1.76857 4.46863 2.06863C4.16857 2.36869 4 2.77565 4 3.2V12.8C4 13.2243 4.16857 13.6313 4.46863 13.9314C4.76869 14.2314 5.17565 14.4 5.6 14.4H10.4C10.8243 14.4 11.2313 14.2314 11.5314 13.9314C11.8314 13.6313 12 13.2243 12 12.8V3.2C12 2.77565 11.8314 2.36869 11.5314 2.06863C11.2313 1.76857 10.8243 1.6 10.4 1.6H5.6ZM8 12.8C8.21217 12.8 8.41566 12.7157 8.56569 12.5657C8.71571 12.4157 8.8 12.2122 8.8 12C8.8 11.7878 8.71571 11.5843 8.56569 11.4343C8.41566 11.2843 8.21217 11.2 8 11.2C7.78783 11.2 7.58434 11.2843 7.43431 11.4343C7.28429 11.5843 7.2 11.7878 7.2 12C7.2 12.2122 7.28429 12.4157 7.43431 12.5657C7.58434 12.7157 7.78783 12.8 8 12.8Z" fill="#2C4474"/>
</svg>
