<svg width="178" height="40" viewBox="0 0 178 40" fill="none" xmlns="http://www.w3.org/2000/svg">
<path d="M76.0742 14.6211V11.9375H62.3164V14.6211H67.5078V29H70.8125V14.6211H76.0742ZM88.7773 21.9336V19.2617H81.4648V14.6211H89.6914V11.9375H78.1602V29H81.4648V21.9336H88.7773ZM96.4062 11.9375H92.3164V29H95.3398V23.9492L95.1992 16.2852L97.2031 23.375H98.832L101.07 15.9688L100.93 23.9492V29H103.953V11.9375H99.8633L98.0234 18.3477L96.4062 11.9375ZM133.004 13.1797V11.9375H120.758V13.1797H126.207L126.195 29H127.566V13.1797H133.004ZM146.996 21.6055V19.3438C146.988 18.7656 146.938 18.1758 146.844 17.5742C146.75 16.9648 146.605 16.375 146.41 15.8047C146.207 15.2422 145.953 14.7109 145.648 14.2109C145.344 13.7109 144.98 13.2734 144.559 12.8984C144.129 12.5312 143.641 12.2422 143.094 12.0312C142.547 11.8125 141.938 11.7031 141.266 11.7031C140.586 11.7031 139.973 11.8125 139.426 12.0312C138.879 12.2422 138.395 12.5312 137.973 12.8984C137.551 13.2812 137.188 13.7227 136.883 14.2227C136.578 14.7148 136.328 15.2461 136.133 15.8164C135.93 16.3789 135.777 16.9648 135.676 17.5742C135.582 18.1758 135.531 18.7656 135.523 19.3438V21.6055C135.531 22.1836 135.586 22.7734 135.688 23.375C135.789 23.9766 135.941 24.5625 136.145 25.1328C136.34 25.6953 136.59 26.2266 136.895 26.7266C137.207 27.2266 137.574 27.6602 137.996 28.0273C138.418 28.4023 138.902 28.6992 139.449 28.918C139.996 29.1289 140.609 29.2344 141.289 29.2344C141.961 29.2344 142.57 29.1289 143.117 28.918C143.664 28.6992 144.148 28.4023 144.57 28.0273C144.992 27.6602 145.355 27.2305 145.66 26.7383C145.965 26.2383 146.215 25.7031 146.41 25.1328C146.605 24.5703 146.75 23.9883 146.844 23.3867C146.938 22.7773 146.988 22.1836 146.996 21.6055ZM145.625 19.3203V21.6055C145.617 22.0586 145.582 22.5312 145.52 23.0234C145.465 23.5078 145.367 23.9844 145.227 24.4531C145.086 24.9219 144.906 25.3711 144.688 25.8008C144.469 26.2227 144.199 26.5938 143.879 26.9141C143.559 27.2344 143.184 27.4922 142.754 27.6875C142.324 27.875 141.836 27.9688 141.289 27.9688C140.734 27.9688 140.242 27.875 139.812 27.6875C139.383 27.4922 139.008 27.2344 138.688 26.9141C138.367 26.5938 138.094 26.2227 137.867 25.8008C137.648 25.3711 137.469 24.918 137.328 24.4414C137.188 23.9727 137.082 23.4961 137.012 23.0117C136.949 22.5195 136.914 22.0508 136.906 21.6055V19.3203C136.914 18.875 136.949 18.4102 137.012 17.9258C137.082 17.4414 137.188 16.9609 137.328 16.4844C137.461 16.0156 137.637 15.5703 137.855 15.1484C138.082 14.7266 138.355 14.3516 138.676 14.0234C138.996 13.7109 139.367 13.4609 139.789 13.2734C140.219 13.0781 140.711 12.9805 141.266 12.9805C141.812 12.9805 142.301 13.0742 142.73 13.2617C143.16 13.4492 143.535 13.7031 143.855 14.0234C144.176 14.3438 144.445 14.7188 144.664 15.1484C144.891 15.5703 145.074 16.0117 145.215 16.4727C145.355 16.9492 145.457 17.4297 145.52 17.9141C145.582 18.3984 145.617 18.8672 145.625 19.3203ZM161.41 21.6055V19.3438C161.402 18.7656 161.352 18.1758 161.258 17.5742C161.164 16.9648 161.02 16.375 160.824 15.8047C160.621 15.2422 160.367 14.7109 160.062 14.2109C159.758 13.7109 159.395 13.2734 158.973 12.8984C158.543 12.5312 158.055 12.2422 157.508 12.0312C156.961 11.8125 156.352 11.7031 155.68 11.7031C155 11.7031 154.387 11.8125 153.84 12.0312C153.293 12.2422 152.809 12.5312 152.387 12.8984C151.965 13.2812 151.602 13.7227 151.297 14.2227C150.992 14.7148 150.742 15.2461 150.547 15.8164C150.344 16.3789 150.191 16.9648 150.09 17.5742C149.996 18.1758 149.945 18.7656 149.938 19.3438V21.6055C149.945 22.1836 150 22.7734 150.102 23.375C150.203 23.9766 150.355 24.5625 150.559 25.1328C150.754 25.6953 151.004 26.2266 151.309 26.7266C151.621 27.2266 151.988 27.6602 152.41 28.0273C152.832 28.4023 153.316 28.6992 153.863 28.918C154.41 29.1289 155.023 29.2344 155.703 29.2344C156.375 29.2344 156.984 29.1289 157.531 28.918C158.078 28.6992 158.562 28.4023 158.984 28.0273C159.406 27.6602 159.77 27.2305 160.074 26.7383C160.379 26.2383 160.629 25.7031 160.824 25.1328C161.02 24.5703 161.164 23.9883 161.258 23.3867C161.352 22.7773 161.402 22.1836 161.41 21.6055ZM160.039 19.3203V21.6055C160.031 22.0586 159.996 22.5312 159.934 23.0234C159.879 23.5078 159.781 23.9844 159.641 24.4531C159.5 24.9219 159.32 25.3711 159.102 25.8008C158.883 26.2227 158.613 26.5938 158.293 26.9141C157.973 27.2344 157.598 27.4922 157.168 27.6875C156.738 27.875 156.25 27.9688 155.703 27.9688C155.148 27.9688 154.656 27.875 154.227 27.6875C153.797 27.4922 153.422 27.2344 153.102 26.9141C152.781 26.5938 152.508 26.2227 152.281 25.8008C152.062 25.3711 151.883 24.918 151.742 24.4414C151.602 23.9727 151.496 23.4961 151.426 23.0117C151.363 22.5195 151.328 22.0508 151.32 21.6055V19.3203C151.328 18.875 151.363 18.4102 151.426 17.9258C151.496 17.4414 151.602 16.9609 151.742 16.4844C151.875 16.0156 152.051 15.5703 152.27 15.1484C152.496 14.7266 152.77 14.3516 153.09 14.0234C153.41 13.7109 153.781 13.4609 154.203 13.2734C154.633 13.0781 155.125 12.9805 155.68 12.9805C156.227 12.9805 156.715 13.0742 157.145 13.2617C157.574 13.4492 157.949 13.7031 158.27 14.0234C158.59 14.3438 158.859 14.7188 159.078 15.1484C159.305 15.5703 159.488 16.0117 159.629 16.4727C159.77 16.9492 159.871 17.4297 159.934 17.9141C159.996 18.3984 160.031 18.8672 160.039 19.3203ZM166.883 27.7695V11.9375H165.477V29H175.566V27.7695H166.883Z" fill="black"/>
<g clip-path="url(#clip0_1_690)">
<path d="M25.88 15.03V35.45C25.88 37.13 24.5 38.51 22.82 38.51H22.44C20.76 38.51 19.38 37.13 19.38 35.45V18.47H19.33V11.97H22.82C24.5 11.97 25.88 13.35 25.88 15.03Z" stroke="#2E3192" stroke-miterlimit="10"/>
<path d="M45.58 3.34V4.15C45.58 5.71 44.3 6.99 42.74 6.99H19.34V35.64C19.34 37.32 17.96 38.7 16.28 38.7H15.9C14.22 38.7 12.84 37.32 12.84 35.64V7H3.56C1.88 7 0.5 5.62 0.5 3.94V3.56C0.5 1.88 1.88 0.5 3.56 0.5H42.74C44.3 0.5 45.58 1.78 45.58 3.34Z" stroke="#2E3192" stroke-miterlimit="10"/>
<path d="M46.1803 14.82V15.63C46.1803 17.19 44.9003 18.47 43.3403 18.47H38.8803V15.03C38.8803 13.35 37.5003 11.97 35.8203 11.97H43.3403C44.9003 11.97 46.1803 13.25 46.1803 14.81V14.82Z" stroke="#2E3192" stroke-miterlimit="10"/>
<path d="M29.32 11.97H28.94C27.25 11.97 25.88 13.34 25.88 15.03V35.65C25.88 37.34 27.25 38.71 28.94 38.71H29.32C31.01 38.71 32.38 37.34 32.38 35.65V15.03C32.38 13.34 31.01 11.97 29.32 11.97Z" stroke="#2E3192" stroke-miterlimit="10"/>
<path d="M35.82 11.97H35.44C33.75 11.97 32.38 13.34 32.38 15.03V35.65C32.38 37.34 33.75 38.71 35.44 38.71H35.82C37.51 38.71 38.88 37.34 38.88 35.65V15.03C38.88 13.34 37.51 11.97 35.82 11.97Z" stroke="#2E3192" stroke-miterlimit="10"/>
</g>
<defs>
<clipPath id="clip0_1_690">
<rect width="46.68" height="39.21" fill="white"/>
</clipPath>
</defs>
</svg>
