<svg width="16" height="16" viewBox="0 0 16 16" fill="none" xmlns="http://www.w3.org/2000/svg">
<path d="M13.3333 1.33334H6.66667C6.13624 1.33334 5.62753 1.54405 5.25245 1.91912C4.87738 2.2942 4.66667 2.8029 4.66667 3.33334V8C4.66667 8.53044 4.87738 9.03914 5.25245 9.41422C5.62753 9.78929 6.13624 10 6.66667 10H13.3333C13.8638 10 14.3725 9.78929 14.7475 9.41422C15.1226 9.03914 15.3333 8.53044 15.3333 8V3.33334C15.3333 2.8029 15.1226 2.2942 14.7475 1.91912C14.3725 1.54405 13.8638 1.33334 13.3333 1.33334ZM14 8C14 8.17681 13.9298 8.34638 13.8047 8.47141C13.6797 8.59643 13.5101 8.66667 13.3333 8.66667H6.66667C6.48986 8.66667 6.32029 8.59643 6.19526 8.47141C6.07024 8.34638 6 8.17681 6 8V3.33334C6 3.15652 6.07024 2.98696 6.19526 2.86193C6.32029 2.73691 6.48986 2.66667 6.66667 2.66667H13.3333C13.5101 2.66667 13.6797 2.73691 13.8047 2.86193C13.9298 2.98696 14 3.15652 14 3.33334V8ZM11.6667 5.33334C11.4199 5.33417 11.1822 5.42686 11 5.59334C10.8566 5.46304 10.6785 5.37718 10.4873 5.3462C10.2961 5.31523 10.1 5.34046 9.9228 5.41884C9.74564 5.49722 9.59506 5.62537 9.48936 5.78771C9.38366 5.95006 9.32739 6.13961 9.32739 6.33334C9.32739 6.52706 9.38366 6.71661 9.48936 6.87896C9.59506 7.0413 9.74564 7.16945 9.9228 7.24783C10.1 7.32621 10.2961 7.35145 10.4873 7.32047C10.6785 7.28949 10.8566 7.20363 11 7.07334C11.1204 7.18275 11.2657 7.26115 11.4232 7.30172C11.5807 7.34229 11.7458 7.34382 11.9041 7.30616C12.0623 7.2685 12.209 7.1928 12.3314 7.08561C12.4538 6.97843 12.5482 6.84301 12.6064 6.6911C12.6646 6.53918 12.6849 6.37536 12.6654 6.21384C12.646 6.05232 12.5874 5.89799 12.4949 5.76422C12.4023 5.63045 12.2784 5.52128 12.1341 5.4462C11.9898 5.37111 11.8293 5.33237 11.6667 5.33334ZM10.6667 11.3333C10.4899 11.3333 10.3203 11.4036 10.1953 11.5286C10.0702 11.6536 10 11.8232 10 12V12.6667C10 12.8435 9.92976 13.013 9.80474 13.1381C9.67972 13.2631 9.51015 13.3333 9.33333 13.3333H2.66667C2.48986 13.3333 2.32029 13.2631 2.19526 13.1381C2.07024 13.013 2 12.8435 2 12.6667V10H2.66667C2.84348 10 3.01305 9.92976 3.13807 9.80474C3.2631 9.67972 3.33333 9.51015 3.33333 9.33334C3.33333 9.15652 3.2631 8.98696 3.13807 8.86193C3.01305 8.73691 2.84348 8.66667 2.66667 8.66667H2V8C2 7.82319 2.07024 7.65362 2.19526 7.5286C2.32029 7.40357 2.48986 7.33334 2.66667 7.33334C2.84348 7.33334 3.01305 7.2631 3.13807 7.13807C3.2631 7.01305 3.33333 6.84348 3.33333 6.66667C3.33333 6.48986 3.2631 6.32029 3.13807 6.19526C3.01305 6.07024 2.84348 6 2.66667 6C2.13623 6 1.62753 6.21072 1.25245 6.58579C0.877382 6.96086 0.666668 7.46957 0.666668 8V12.6667C0.666668 13.1971 0.877382 13.7058 1.25245 14.0809C1.62753 14.456 2.13623 14.6667 2.66667 14.6667H9.33333C9.86377 14.6667 10.3725 14.456 10.7475 14.0809C11.1226 13.7058 11.3333 13.1971 11.3333 12.6667V12C11.3333 11.8232 11.2631 11.6536 11.1381 11.5286C11.013 11.4036 10.8435 11.3333 10.6667 11.3333ZM4 12H4.66667C4.84348 12 5.01305 11.9298 5.13807 11.8047C5.2631 11.6797 5.33333 11.5101 5.33333 11.3333C5.33333 11.1565 5.2631 10.987 5.13807 10.8619C5.01305 10.7369 4.84348 10.6667 4.66667 10.6667H4C3.82319 10.6667 3.65362 10.7369 3.5286 10.8619C3.40357 10.987 3.33333 11.1565 3.33333 11.3333C3.33333 11.5101 3.40357 11.6797 3.5286 11.8047C3.65362 11.9298 3.82319 12 4 12Z" fill="#2C4474"/>
</svg>
